<?xml version="1.0" encoding="utf-8"?>
<!-- Generator: Adobe Illustrator 27.5.0, SVG Export Plug-In . SVG Version: 6.00 Build 0)  -->
<svg version="1.1" xmlns="http://www.w3.org/2000/svg" xmlns:xlink="http://www.w3.org/1999/xlink" x="0px" y="0px"
	 viewBox="0 0 500 500" style="enable-background:new 0 0 500 500;" xml:space="preserve" >
<g id="BACKGROUND">
	<radialGradient id="SVGID_1_" cx="247.07" cy="249" r="462.0971" gradientUnits="userSpaceOnUse">
		<stop  offset="0" style="stop-color:#FFFFFF"/>
		<stop  offset="0.9622" style="stop-color:#BCBEC0"/>
	</radialGradient>
	<rect style="fill:#00000000;" width="500" height="500"/>
</g>
<g id="OBJECTS">
	<ellipse style="opacity:0.42;fill:#B7B7B7;" cx="104.776" cy="294.723" rx="37.505" ry="7.726"/>
	<path style="opacity:0.42;fill:#B7B7B7;" d="M451.919,290.753c0,4.267-16.792,7.726-37.505,7.726
		c-20.714,0-37.506-3.459-37.506-7.726s16.792-7.726,37.506-7.726C435.127,283.027,451.919,286.486,451.919,290.753z"/>
	<rect x="83.865" y="196.012" style="fill:none;" width="332.268" height="90.962"/>
	<text transform="matrix(1 0 0 1 160.8623 278.2578)" style="fill:#C66D1E; font-family:'NexaBold'; font-size:115.8405px;">404</text>
	<rect x="104.955" y="149.197" style="fill:none;" width="303.654" height="26.081"/>
	<text transform="matrix(1 0 0 1 213.7148 167.2432)" style="fill:#666666; font-family:'Poppins-Light'; font-size:24.3875px;">OOPS ... </text>
	<rect x="104.955" y="304.717" style="fill:none;" width="303.654" height="26.08"/>
	<text transform="matrix(1 0 0 1 159.502 322.7637)"><tspan x="0" y="0" style="fill:#666666; font-family:'Poppins-Light'; font-size:24.3875px;">PAGE </tspan><tspan x="67.674" y="0" style="fill:#666666; font-family:'Poppins'; font-size:24.3875px;">NOT FOUND</tspan></text>
	<g>
		<path style="fill:#E02828;" d="M50.015,240.744c0,0-2.955-1.827-3.704,0.606c-0.749,2.434-0.749,5.99,0,6.271
			c0.749,0.281,5.054,0,5.054,0S52.876,242.196,50.015,240.744z"/>
		<g>
			<path style="fill:#D67C22;" d="M123.182,242.185c0,0-6.644-4.679-8.251,2.822c0,0,1.556,4.169,2.348,11.79
				c2.77,0.565,5.497,1.221,8.163,1.95C125.441,251.692,124.889,245.244,123.182,242.185z"/>
			<path style="fill:#E28E33;" d="M127.683,288.305l-4.072-1.796c0,0,1.833-14.89,1.831-27.762c-2.666-0.729-5.393-1.385-8.163-1.95
				c0.692,6.659,0.801,15.952-1.223,27.412c0,0-2.612,7.013,0.275,9.931c2.886,2.917,5.458,1.907,9.101,3.366
				c3.644,1.459,9.752,1.795,12.216-2.356C140.114,290.997,135.077,283.928,127.683,288.305z"/>
		</g>
		<g>
			<path style="fill:#D67C22;" d="M82.89,237.454c0,0-6.645-4.913-8.251,2.963c0,0,2.024,5.704,2.629,15.985
				c2.586-0.589,5.218-1.038,7.882-1.351C85.159,247.564,84.613,240.696,82.89,237.454z"/>
			<path style="fill:#E28E33;" d="M87.391,285.877l-4.072-1.885c0,0,1.814-15.474,1.832-28.94c-2.664,0.313-5.296,0.762-7.882,1.351
				c0.388,6.602,0.193,15.085-1.504,25.175c0,0-2.611,7.363,0.275,10.427c2.886,3.064,5.458,2.003,9.102,3.534
				c3.644,1.532,9.752,1.885,12.216-2.474C99.821,288.705,94.785,281.282,87.391,285.877z"/>
		</g>
		<path style="fill:#E89442;" d="M112.287,163.02c2.808-5.054,3.931-11.23,1.685-16.845c-0.166-0.365-0.351-0.7-0.55-1.012
			c-11.322,3.92-28.101,14.373-36.424,42.208C91.156,183.722,104.038,176.426,112.287,163.02z"/>
		<path style="fill:#E28E33;" d="M129.408,138.413c0.009,0.679,0.15,1.278,0.15,1.278S129.516,139.202,129.408,138.413z"/>
		<path style="fill:#E28E33;" d="M134.113,147.069c0,0,6.537,0.533,5.733-2.244c-0.804-2.777-3.376-2.02-3.376-2.02
			s6.751-5.386,2.732-7.743c-4.018-2.356-6.59,4.965-6.59,4.965s0.321-3.366-1.768-3.535c-1.209-0.098-1.448,0.987-1.436,1.92
			c0.108,0.789,0.15,1.278,0.15,1.278s-0.141-0.599-0.15-1.278c-0.467-3.424-2.169-12.488-7.003-11.598
			c-5.947,1.094,2.813,13.97,2.813,13.97s-1.768-1.431-2.411,0.084c-0.643,1.515,2.09,1.936,2.09,1.936s-4.785,0.041-11.476,2.357
			c0.2,0.312,0.384,0.648,0.55,1.012c2.246,5.615,1.123,11.791-1.685,16.845c-8.249,13.406-21.131,20.702-35.29,24.351
			c-1.465,4.899-2.672,10.329-3.537,16.365c0,0-4.208,34.355-3.215,36.02c2.039,3.415,25.016,7.643,50.677,6.696
			c2.391-0.088,4.493-1.686,5.308-4.041l12.252-31.723c4.078-10.56,6.372-21.8,6.577-33.189
			C145.279,165.3,143.221,151.894,134.113,147.069z"/>
		<g>
			<path style="fill:#E28E33;" d="M90.837,189.079c-1.006-1.994-3.284-3.683-8.304-2.947c-7.091,1.04-12.858,10.765-15.929,17.168
				C76.035,200.396,84.724,195.882,90.837,189.079z"/>
			<path style="fill:#E28E33;" d="M69.051,209.625c3.938-6.891,11.759-12.055,20.437-12.09c0.704-0.631,1.466-1.712,2.003-3.587
				c0,0,0.477-2.626-0.654-4.869c-6.113,6.804-14.803,11.318-24.233,14.221c-1.547,3.225-2.412,5.611-2.412,5.611
				s-3.839-0.447-4.692,4.466c0,0-0.427,2.457,1.066,3.35c0,0-14.716,21.439-11.517,29.925c0,0-0.569,2.605,1.919,3.499
				c0,0,1.635,3.573,4.052,2.307c0,0-1.99,4.913,0.569,5.881c2.56,0.968,5.403,0.596,6.398-3.573
				c0.253-1.059,0.769-4.673,1.717-9.61C61.454,233.23,62.31,220.728,69.051,209.625z"/>
			<path style="fill:#D67C22;" d="M69.051,209.625c-6.741,11.103-7.597,23.605-5.346,35.53c2.785-14.494,9.311-40.411,23.947-46.741
				c0,0,0.862-0.006,1.836-0.879C80.81,197.57,72.989,202.734,69.051,209.625z"/>
		</g>
		<path style="fill:#D67C22;" d="M76.478,189.146c0,0,8.913-6.927,14.36-0.068C90.837,189.079,87.202,184.32,76.478,189.146z"/>
		<path style="fill:#EF9C56;" d="M122.405,126.815c0,0,5.604-2.354,7.078,12.468c0,0-0.928-3.137,1.361-2.79
			c2.289,0.347,1.768,3.535,1.768,3.535s1.584-6.802,6.106-5.206c4.522,1.597-0.806,6.929-2.248,7.983c0,0,3.118-0.549,3.435,2.357
			c0,0-1.753-2.848-4.245-1.585c0,0,5.642-6.812,2.527-7.44c-3.115-0.628-5.721,5.335-5.721,5.335s-0.448-4.09-1.789-3.509
			c-1.342,0.581-1.119,3.404-1.119,3.404S126.943,127.354,122.405,126.815z"/>
		<path style="fill:#E02828;" d="M67.634,246.591c-2.703-3.185-6.67-2.899-6.67-2.899c-1.545,4.307-1.264,7.906-1.264,7.906
			s-15.301,28.637-7.44,24.426c5.994-3.211,12.772-0.954,15.655,0.299c0.45,0.196,0.934,0.064,1.237-0.256
			C63.97,266.823,62.485,255.787,67.634,246.591z"/>
		<path style="fill:#ED3E3E;" d="M70.088,254.546c-0.047-3.861-1.09-6.348-2.454-7.955c-5.149,9.196-3.664,20.232,1.518,29.476
			c0.166-0.176,0.281-0.408,0.299-0.678C69.69,271.93,70.196,263.404,70.088,254.546z"/>
		<path style="fill:#181818;" d="M117.673,177.035c-0.774,1.847-0.854,3.583-0.18,3.878c0.675,0.295,1.85-0.962,2.624-2.809
			c0.774-1.847,0.854-3.584,0.179-3.879C119.622,173.931,118.447,175.188,117.673,177.035"/>
		<path style="fill:#181818;" d="M133.099,180.754c-0.632,1.9-0.58,3.638,0.115,3.881c0.696,0.244,1.771-1.099,2.404-2.999
			c0.632-1.9,0.581-3.638-0.115-3.881C134.807,177.511,133.731,178.854,133.099,180.754"/>
		<path style="fill:#181818;" d="M129.66,169.523c-0.632,1.9-0.581,3.638,0.115,3.881c0.696,0.244,1.771-1.099,2.404-2.999
			c0.632-1.9,0.581-3.638-0.115-3.882C131.368,166.281,130.292,167.624,129.66,169.523"/>
		<g>
			<path style="fill:#181818;" d="M124.563,196.82c-1.766-1.586-4.092-2.438-6.458-2.257c-0.037,0.003-0.075,0.006-0.112,0.009
				c-3.745,0.307-4.895-5.388,0.074-6.561c4.97-1.173,10.765,1.517,12.231,5.535C131.582,197.061,127.998,199.907,124.563,196.82z"
				/>
			<g>
				<defs>
					<path id="SVGID_00000172435585876127965530000000399619859767137928_" d="M124.563,196.82
						c-1.766-1.586-4.092-2.438-6.458-2.257c-0.037,0.003-0.075,0.006-0.112,0.009c-3.745,0.307-4.895-5.388,0.074-6.561
						c4.97-1.173,10.765,1.517,12.231,5.535C131.582,197.061,127.998,199.907,124.563,196.82z"/>
				</defs>
				<clipPath id="SVGID_00000083768876629158219850000003800792911363504030_">
					<use xlink:href="#SVGID_00000172435585876127965530000000399619859767137928_"  style="overflow:visible;"/>
				</clipPath>
				<path style="clip-path:url(#SVGID_00000083768876629158219850000003800792911363504030_);fill:#D04642;" d="M128.175,198.274
					c-0.667,1.71-3.94,2.028-7.31,0.712c-3.37-1.316-5.562-3.768-4.894-5.477c0.667-1.709,3.94-2.028,7.311-0.712
					C126.651,194.113,128.842,196.565,128.175,198.274z"/>
			</g>
		</g>
		<path style="fill:#E28E33;" d="M148.816,209.096c3.915-16.381-7.081-23.141-7.081-23.141l-1.187,3.423l-5.268,15.199
			c-1.843,10.84-8.367,5.161-8.367,5.161c-0.533-1.675-1.173,0-1.173,0s0-6.588,0-10.887c0-4.299-1.066-6.086-3.092-4.969
			c-2.026,1.117-1.386,9.938-1.386,9.938c-1.44-2.177-2.613,0.056-2.613,0.056s-0.426-0.949-1.439-0.837
			c-1.013,0.112-1.066,1.229-1.066,1.229c-0.32-0.559-1.706-2.345-2.986,0c-1.28,2.345,2.239,15.074,8.008,18.871
			c1.143,0.752,2.759,1.308,4.643,1.592C135.311,222.593,143.838,217.499,148.816,209.096z"/>
		<path style="fill:#D67C22;" d="M125.808,224.73c5.977,0.901,14.677-0.956,19.733-8.169c1.4-1.997,2.527-4.395,3.231-7.269
			c0.017-0.067,0.028-0.13,0.043-0.197C143.838,217.499,135.311,222.593,125.808,224.73z"/>
		<path style="fill:#D67C22;" d="M136.643,211.871c0,0-5.686,1.902-10.903-2.132c0,0,1.885-16.242-2.134-16.174
			c0,0-3.459-0.77-2.382,9.616c0,0-1.619-1.038-2.576,0.696c0,0-1.729-1.991-2.483,0.223c0,0-2.453-2.243-3.271,0.564
			c0,0-3.133,16.456,14.519,20.283c0,0-14.634-3.542-14.073-19.896c0,0,0.14-0.982,1.193-1.035c1.053-0.053,1.649,1.176,1.649,1.176
			s0.351-1.615,1.158-1.421c0.807,0.193,1.369,1.316,1.369,1.316s0.281-1.825,1.492-1.526c1.21,0.298,1.246,1.702,1.246,1.702
			s-0.631-11.686,2.036-11.265c2.667,0.421,1.86,16.635,1.86,16.635S131.449,215.731,136.643,211.871z"/>
		<path style="fill:#D67C22;" d="M144.132,189.079c0,0-2.085,12.124-6.999,22.792C137.134,211.871,143.971,200.96,144.132,189.079z"
			/>
		<path style="fill:#C91F1F;" d="M69.472,275.818c0,3.522-4.355,6.379-9.729,6.379c-5.374,0-9.729-2.857-9.729-6.379
			c0-3.523,4.355-6.379,9.729-6.379C65.117,269.44,69.472,272.295,69.472,275.818z"/>
		<path style="fill:#EAC71B;" d="M58.008,276.063v13.203l3.02-12.763c0.109-0.463-0.104-0.944-0.525-1.165
			c-0.404-0.211-0.959-0.395-1.594-0.313C58.393,275.092,58.008,275.542,58.008,276.063z"/>
		<path style="fill:#EAC71B;" d="M60.675,287.324c0,1.357-1.1,2.456-2.457,2.456c-1.356,0-2.457-1.1-2.457-2.456
			c0-1.357,1.1-2.457,2.457-2.457C59.576,284.867,60.675,285.967,60.675,287.324z"/>
	</g>
	<g>
		<path style="fill:#E89442;" d="M366.844,172.04c-2.637-1.972-5.837-3.551-9.687-4.205c-7.837-1.331-13.189,1.314-16.487,4.089
			C349.388,172.742,358.142,172.896,366.844,172.04z"/>
		<path style="fill:#E28E33;" d="M366.844,172.04c-8.702,0.857-17.456,0.703-26.174-0.115c-2.918,2.456-4.228,5.015-4.228,5.015
			s-7.061,4.877-6.781,7.014c0.278,2.137,1.579,1.394,1.579,1.394c0,2.09,1.114,1.672,1.114,1.672s-1.625,8.221,0.604,8.314
			c2.23,0.093,3.879-6.631,3.879-6.631s-0.087,1.672,2.596,1.167c2.682-0.505,2.398-6.613,2.398-6.613
			c2.787-7.896,10.962-6.921,10.962-6.921c7.637,0.667,13.393,7.565,17.459,15.146c1.506-4.346,2.465-8.868,2.51-13.372
			C371.237,176.023,369.281,173.863,366.844,172.04z"/>
		<path style="fill:#D67C22;" d="M377.223,186.414c0,0-1.316-3.99-4.463-8.304c-0.045,4.503-1.004,9.025-2.51,13.372
			c5.283,9.849,7.716,20.851,7.716,20.851C379.266,196.354,377.223,186.414,377.223,186.414z"/>
		<path style="fill:#D67C22;" d="M435.756,185.023c0,0-3.158,8.12,0.743,17.967c0,0,1.268,0.161,2.998,1.017
			c0.87-5.351,2.227-10.609,4.006-15.77C441.272,186.87,438.709,185.77,435.756,185.023z"/>
		<path style="fill:#E89442;" d="M446.633,190.517c2.041,11.301,5.341,22.933,10.827,33.353
			C457.885,213.304,456.374,198.837,446.633,190.517z"/>
		<path style="fill:#E28E33;" d="M446.633,190.517c-0.962-0.822-2-1.588-3.13-2.28c-1.779,5.161-3.136,10.419-4.006,15.77
			c4.727,2.339,12.91,9.874,8.149,33.54c0,0-4.855,3.716-4.854,6.642c0.001,2.926,1.603,3.692,1.603,3.692s-1.255,2.926,1.254,2.926
			c2.508,0,4.599,0.558,5.295,0.906c0.696,0.348,2.508-0.488,3.483,0c0.976,0.487,3.274,0.487,4.111-0.279
			c0.836-0.766,0.278-11.357-2.648-14.562c0,0,1.269-5.523,1.569-13.003C451.974,213.45,448.674,201.818,446.633,190.517z"/>
		<g>
			<g>
				<path style="fill:#E28E33;" d="M394.058,283.561c0,0-1.189-1.968-2.333-0.732c0,0-8.371-5.443-12.351,3.614
					c-3.98,9.057,13.86,9.469,18.252,5.215c4.392-4.255,5.764-4.392,5.764-4.392s1.784-2.882,0-4.117
					c-1.32-0.914-4.897-14.39-5.664-28.788c-2.473,0.264-4.927,0.619-7.355,1.095L394.058,283.561z"/>
				<path style="fill:#D67C22;" d="M398.175,239.372c0,0-8.097-7.136-10.293-2.882l2.488,18.966
					c2.429-0.476,4.883-0.831,7.355-1.095C397.457,249.311,397.533,244.147,398.175,239.372z"/>
			</g>
			<g>
				<path style="fill:#E28E33;" d="M425.153,279.41c0,0,1.19-1.967,2.333-0.731c0,0,8.371-5.443,12.352,3.614
					c3.979,9.057-13.861,9.469-18.252,5.215c-4.392-4.255-5.765-4.392-5.765-4.392s-1.784-2.882,0-4.117
					c1.321-0.914,4.897-14.39,5.664-28.789c2.474,0.264,4.927,0.62,7.355,1.095L425.153,279.41z"/>
				<path style="fill:#D67C22;" d="M421.036,235.221c0,0,8.098-7.136,10.293-2.882l-2.488,18.966
					c-2.429-0.476-4.882-0.832-7.355-1.095C421.754,245.16,421.678,239.997,421.036,235.221z"/>
			</g>
			<path style="fill:#E28E33;" d="M398.696,135.735c0.11,0.271,0.216,0.43,0.216,0.43S398.838,136.01,398.696,135.735z"/>
			<path style="fill:#E89442;" d="M431.103,174.547c2.179,1.341,4.405,2.54,6.676,3.618c-1.857-13.958-6.102-27.216-14.776-35.018
				c-1.632-1.467-3.425-2.734-5.383-3.784C413.371,151.259,420.348,168.094,431.103,174.547z"/>
			<path style="fill:#E28E33;" d="M431.103,174.547c-10.756-6.454-17.732-23.288-13.483-35.184c-1.54-0.827-3.181-1.523-4.939-2.056
				c0,0,13.678-13.083,5.718-18.572c-7.96-5.489-12.9,16.056-12.9,16.056s-2.47-5.489-5.352-3.294
				c-2.154,1.641-1.778,3.434-1.451,4.236c0.142,0.275,0.216,0.43,0.216,0.43s-0.105-0.159-0.216-0.43
				c-1.378-2.691-9.105-17.003-15.703-13.019c-7.273,4.391,10.017,17.429,10.017,17.429s-4.343,3.142-8.787,11.202
				c-7.144,12.954-14.549,38.615-4.608,84.367c11.485,2.495,23.631,2.397,35.778-0.302c9.791-2.176,17.434-8.342,22.67-16.333
				c0.982-10.711,1.675-26.201-0.284-40.912C435.509,177.087,433.282,175.888,431.103,174.547z"/>
			<path style="fill:#D67C22;" d="M415.394,235.411c-12.147,2.699-24.293,2.797-35.778,0.302c0.329,1.515,0.677,3.052,1.045,4.612
				c0,0,7.96,1.647,28.956,0c20.997-1.646,26.761-7.548,26.761-7.548s0.928-5.424,1.686-13.7
				C432.827,227.069,425.185,233.235,415.394,235.411z"/>
			<path style="fill:#181818;" d="M404.618,162.264c0.068,1.718,0.636,3.099,1.267,3.084c0.633-0.015,1.091-1.42,1.023-3.138
				c-0.067-1.718-0.636-3.099-1.269-3.084C405.009,159.142,404.551,160.546,404.618,162.264"/>
			<path style="fill:#181818;" d="M395.537,174.206c0.067,1.718,0.636,3.099,1.268,3.084c0.633-0.015,1.091-1.42,1.023-3.138
				c-0.068-1.718-0.636-3.099-1.268-3.084C395.928,171.083,395.47,172.488,395.537,174.206"/>
			<path style="fill:#181818;" d="M415.31,171.068c-0.632,0.015-1.09,1.42-1.023,3.138c0.067,1.718,0.636,3.099,1.268,3.084
				c0.633-0.015,1.091-1.42,1.022-3.138C416.51,172.434,415.942,171.053,415.31,171.068z"/>
			<g>
				<path style="fill:#BA6315;" d="M398.175,186.284c0,0,7.333-5.061,17.258-1.085C415.433,185.199,406.027,179.415,398.175,186.284
					z"/>
				<path style="fill:#BA6315;" d="M396.683,184.988c0,0,2.277,0.201,2.117,3.174C398.8,188.162,398.422,186.113,396.683,184.988z"
					/>
				<path style="fill:#BA6315;" d="M415.031,187.369c0,0,0.377-2.049,2.117-3.174C417.148,184.194,414.87,184.395,415.031,187.369z"
					/>
				<path style="fill:#BA6315;" d="M403.5,187.369c0,0,3.215-1.275,6.831,0C410.331,187.369,406.875,185.048,403.5,187.369z"/>
			</g>
			<path style="fill:#EF9C56;" d="M382.993,122.716c0,0,7.032-5.643,15.919,13.449C398.912,136.165,391.815,122.84,382.993,122.716z
				"/>
			<path style="fill:#EF9C56;" d="M419.92,127.424c1.854-3.38,1.319-10.618-4.766-9.521c-6.084,1.098-9.655,16.889-9.655,16.889
				c-2.48-4.523-4.208-4.697-6.073-2.643c-1.865,2.055-0.514,4.015-0.514,4.015c-0.028-2.579,1.897-3.328,1.897-3.328
				c3.748-0.329,5.123,6.328,5.123,6.328s3.978-18.321,9.341-19.587C420.637,118.313,419.92,127.424,419.92,127.424z"/>
		</g>
	</g>
</g>
</svg>
