<svg xmlns="http://www.w3.org/2000/svg" version="1.1" xmlns:xlink="http://www.w3.org/1999/xlink" width="512" height="512" x="0" y="0" viewBox="0 0 512 512" style="enable-background:new 0 0 512 512" xml:space="preserve" fill-rule="evenodd" class=""><circle r="256" cx="256" cy="256" fill="#e50914" shape="circle"></circle><g transform="matrix(0.6399999999999999,0,0,0.6399999999999999,92.16000000000003,92.16000686645506)"><path d="M76.439 201.548c0-21.094-17.126-38.22-38.22-38.22C17.126 163.328 0 180.454 0 201.548v108.896c0 21.094 17.126 38.22 38.219 38.22 21.094 0 38.22-17.126 38.22-38.22zM185.329 119.883c0-21.095-17.127-38.222-38.222-38.222-21.096 0-38.223 17.127-38.223 38.222v272.226c0 21.096 17.127 38.223 38.223 38.223 21.095 0 38.222-17.127 38.222-38.223zM294.219 38.216c0-21.096-17.127-38.223-38.222-38.223-21.096 0-38.223 17.127-38.223 38.223v435.568c0 21.096 17.127 38.223 38.223 38.223 21.095 0 38.222-17.127 38.222-38.223zM403.11 119.883c0-21.095-17.127-38.222-38.223-38.222-21.095 0-38.222 17.127-38.222 38.222v272.226c0 21.096 17.127 38.223 38.222 38.223 21.096 0 38.223-17.127 38.223-38.223zM512 201.551c0-21.096-17.127-38.223-38.223-38.223-21.095 0-38.222 17.127-38.222 38.223v108.89c0 21.096 17.127 38.223 38.222 38.223 21.096 0 38.223-17.127 38.223-38.223z" fill="#111111" opacity="1" data-original="#000000" class=""></path></g></svg>